<?xml version="1.0" standalone="no"?>
<!DOCTYPE svg PUBLIC "-//W3C//DTD SVG 20010904//EN"
 "http://www.w3.org/TR/2001/REC-SVG-20010904/DTD/svg10.dtd">
<svg version="1.0" xmlns="http://www.w3.org/2000/svg"
 width="16.000000pt" height="16.000000pt" viewBox="0 0 16.000000 16.000000"
 preserveAspectRatio="xMidYMid meet">
<metadata>
Created by potrace 1.11, written by Peter Selinger 2001-2013
</metadata>
<g transform="translate(0.000000,16.000000) scale(0.010526,-0.010526)"
fill="#000000" stroke="none">
<path d="M575 1305 c-113 -19 -126 -22 -206 -51 -217 -78 -357 -220 -365 -367
-5 -101 40 -185 125 -235 40 -23 57 -27 127 -27 76 0 85 2 131 34 57 39 89 81
108 143 14 46 11 129 -6 160 -11 20 3 48 24 48 6 0 18 6 26 13 14 12 70 31
125 43 33 7 147 7 195 -1 54 -8 169 -59 176 -77 3 -8 -1 -32 -8 -53 -53 -154
68 -325 231 -326 84 0 120 12 176 62 134 117 105 327 -64 460 -77 61 -181 119
-214 119 -8 0 -17 4 -20 9 -3 5 -18 11 -33 14 -16 3 -62 13 -103 22 -98 22
-321 27 -425 10z"/>
<path d="M655 899 c-87 -14 -90 -15 -93 -51 -7 -103 -80 -206 -180 -255 -50
-24 -68 -28 -141 -27 l-83 1 -33 -71 c-37 -81 -52 -136 -60 -224 l-7 -62 702
0 702 0 -6 64 c-8 76 -28 150 -64 227 l-25 57 -73 -5 c-127 -9 -234 48 -297
157 -25 43 -41 102 -39 142 0 9 -5 21 -11 26 -25 21 -205 34 -292 21z m197
-165 c80 -40 126 -128 113 -214 -8 -53 -19 -76 -54 -113 -91 -99 -251 -82
-328 35 -53 80 -29 214 48 269 68 48 154 57 221 23z"/>
</g>
</svg>
